<svg width="206" height="132" viewBox="0 0 206 132" fill="none" xmlns="http://www.w3.org/2000/svg">
<mask id="path-1-inside-1_4020_197" fill="white">
<path fill-rule="evenodd" clip-rule="evenodd" d="M51.5674 23.25C71.0142 23.25 88.9092 27.4231 103.105 34.4199H103.136V132C88.9347 125.711 71.0279 121.961 51.5674 121.961C32.1071 121.961 14.2009 125.711 0 132V34.4199H0.0283203C14.2247 27.4227 32.1201 23.25 51.5674 23.25Z"/>
</mask>
<path fill-rule="evenodd" clip-rule="evenodd" d="M51.5674 23.25C71.0142 23.25 88.9092 27.4231 103.105 34.4199H103.136V132C88.9347 125.711 71.0279 121.961 51.5674 121.961C32.1071 121.961 14.2009 125.711 0 132V34.4199H0.0283203C14.2247 27.4227 32.1201 23.25 51.5674 23.25Z" fill="black"/>
<path d="M51.5674 23.25V21.25H51.5674L51.5674 23.25ZM103.105 34.4199L102.221 36.2139L102.639 36.4199H103.105V34.4199ZM103.136 34.4199H105.136V32.4199H103.136V34.4199ZM103.136 132L102.326 133.829L105.136 135.073V132H103.136ZM51.5674 121.961V119.961H51.5674L51.5674 121.961ZM0 132H-2V135.073L0.809802 133.829L0 132ZM0 34.4199V32.4199H-2V34.4199H0ZM0.0283203 34.4199V36.4199H0.494433L0.91252 36.2139L0.0283203 34.4199ZM51.5674 23.25V25.25C70.7398 25.25 88.3276 29.3661 102.221 36.2139L103.105 34.4199L103.99 32.626C89.4908 25.48 71.2886 21.25 51.5674 21.25V23.25ZM103.105 34.4199V36.4199H103.136V34.4199V32.4199H103.105V34.4199ZM103.136 34.4199H101.136V132H103.136H105.136V34.4199H103.136ZM103.136 132L103.946 130.171C89.4592 123.756 71.2718 119.961 51.5674 119.961V121.961V123.961C70.7841 123.961 88.4101 127.666 102.326 133.829L103.136 132ZM51.5674 121.961L51.5674 119.961C31.8633 119.961 13.6764 123.756 -0.809802 130.171L0 132L0.809802 133.829C14.7255 127.667 32.351 123.961 51.5674 123.961L51.5674 121.961ZM0 132H2V34.4199H0H-2V132H0ZM0 34.4199V36.4199H0.0283203V34.4199V32.4199H0V34.4199ZM0.0283203 34.4199L0.91252 36.2139C14.8063 29.3658 32.3945 25.25 51.5674 25.25L51.5674 23.25L51.5674 21.25C31.8457 21.25 13.6431 25.4797 -0.85588 32.626L0.0283203 34.4199Z" fill="black" mask="url(#path-1-inside-1_4020_197)"/>
<mask id="path-3-inside-2_4020_197" fill="white">
<path fill-rule="evenodd" clip-rule="evenodd" d="M154.432 23.25C173.878 23.25 191.774 27.4232 205.97 34.4199H206V132C191.799 125.711 173.892 121.961 154.432 121.961C134.972 121.961 117.065 125.712 102.864 132V34.4199H102.893C117.089 27.4227 134.984 23.2501 154.432 23.25Z"/>
</mask>
<path fill-rule="evenodd" clip-rule="evenodd" d="M154.432 23.25C173.878 23.25 191.774 27.4232 205.97 34.4199H206V132C191.799 125.711 173.892 121.961 154.432 121.961C134.972 121.961 117.065 125.712 102.864 132V34.4199H102.893C117.089 27.4227 134.984 23.2501 154.432 23.25Z" fill="black"/>
<path d="M154.432 23.25V21.25H154.432L154.432 23.25ZM205.97 34.4199L205.086 36.2139L205.504 36.4199H205.97V34.4199ZM206 34.4199H208V32.4199H206V34.4199ZM206 132L205.19 133.829L208 135.073V132H206ZM154.432 121.961V119.961H154.432L154.432 121.961ZM102.864 132H100.864V135.073L103.674 133.829L102.864 132ZM102.864 34.4199V32.4199H100.864V34.4199H102.864ZM102.893 34.4199V36.4199H103.359L103.777 36.2139L102.893 34.4199ZM154.432 23.25V25.25C173.604 25.25 191.192 29.3662 205.086 36.2139L205.97 34.4199L206.854 32.626C192.355 25.4801 174.153 21.25 154.432 21.25V23.25ZM205.97 34.4199V36.4199H206V34.4199V32.4199H205.97V34.4199ZM206 34.4199H204V132H206H208V34.4199H206ZM206 132L206.81 130.171C192.324 123.756 174.136 119.961 154.432 119.961V121.961V123.961C173.648 123.961 191.274 127.666 205.19 133.829L206 132ZM154.432 121.961L154.432 119.961C134.728 119.961 116.541 123.756 102.054 130.171L102.864 132L103.674 133.829C117.59 127.667 135.215 123.961 154.432 123.961L154.432 121.961ZM102.864 132H104.864V34.4199H102.864H100.864V132H102.864ZM102.864 34.4199V36.4199H102.893V34.4199V32.4199H102.864V34.4199ZM102.893 34.4199L103.777 36.2139C117.671 29.3658 135.259 25.2501 154.432 25.25L154.432 23.25L154.432 21.25C134.71 21.2501 116.507 25.4796 102.008 32.626L102.893 34.4199Z" fill="black" mask="url(#path-3-inside-2_4020_197)"/>
<mask id="path-5-inside-3_4020_197" fill="white">
<path fill-rule="evenodd" clip-rule="evenodd" d="M56.5752 15.001C74.0321 15.001 90.0965 19.0349 102.84 25.8008H102.864V120.152C90.1169 114.072 74.0435 110.446 56.5752 110.446C39.107 110.446 23.0334 114.072 10.2861 120.152V25.8008H10.3105C23.0539 19.0348 39.1182 15.001 56.5752 15.001Z"/>
</mask>
<path fill-rule="evenodd" clip-rule="evenodd" d="M56.5752 15.001C74.0321 15.001 90.0965 19.0349 102.84 25.8008H102.864V120.152C90.1169 114.072 74.0435 110.446 56.5752 110.446C39.107 110.446 23.0334 114.072 10.2861 120.152V25.8008H10.3105C23.0539 19.0348 39.1182 15.001 56.5752 15.001Z" fill="#D9D9D9"/>
<path d="M56.5752 15.001V13.001H56.5752L56.5752 15.001ZM102.84 25.8008L101.902 27.5672L102.342 27.8008H102.84V25.8008ZM102.864 25.8008H104.864V23.8008H102.864V25.8008ZM102.864 120.152L102.003 121.957L104.864 123.322V120.152H102.864ZM56.5752 110.446V108.446H56.5752L56.5752 110.446ZM10.2861 120.152H8.28613V123.322L11.1472 121.957L10.2861 120.152ZM10.2861 25.8008V23.8008H8.28613V25.8008H10.2861ZM10.3105 25.8008V27.8008H10.8086L11.2484 27.5672L10.3105 25.8008ZM56.5752 15.001V17.001C73.7343 17.001 89.4722 20.9678 101.902 27.5672L102.84 25.8008L103.778 24.0343C90.7208 17.1019 74.33 13.001 56.5752 13.001V15.001ZM102.84 25.8008V27.8008H102.864V25.8008V23.8008H102.84V25.8008ZM102.864 25.8008H100.864V120.152H102.864H104.864V25.8008H102.864ZM102.864 120.152L103.725 118.347C90.6804 112.125 74.3079 108.446 56.5752 108.446V110.446V112.446C73.779 112.446 89.5535 116.019 102.003 121.957L102.864 120.152ZM56.5752 110.446L56.5752 108.446C38.8426 108.446 22.4699 112.125 9.42508 118.347L10.2861 120.152L11.1472 121.957C23.5969 116.019 39.3715 112.446 56.5752 112.446L56.5752 110.446ZM10.2861 120.152H12.2861V25.8008H10.2861H8.28613V120.152H10.2861ZM10.2861 25.8008V27.8008H10.3105V25.8008V23.8008H10.2861V25.8008ZM10.3105 25.8008L11.2484 27.5672C23.6782 20.9677 39.416 17.001 56.5752 17.001L56.5752 15.001L56.5752 13.001C38.8203 13.001 22.4296 17.1018 9.37266 24.0343L10.3105 25.8008Z" fill="black" mask="url(#path-5-inside-3_4020_197)"/>
<mask id="path-7-inside-4_4020_197" fill="white">
<path fill-rule="evenodd" clip-rule="evenodd" d="M59.959 7.50098C76.2416 7.50098 91.2251 11.2636 103.111 17.5742H103.136V105.58C91.2457 99.9085 76.2526 96.5264 59.959 96.5264C43.6656 96.5264 28.6732 99.9086 16.7832 105.58V17.5742H16.8076C28.6937 11.2637 43.6767 7.50102 59.959 7.50098Z"/>
</mask>
<path fill-rule="evenodd" clip-rule="evenodd" d="M59.959 7.50098C76.2416 7.50098 91.2251 11.2636 103.111 17.5742H103.136V105.58C91.2457 99.9085 76.2526 96.5264 59.959 96.5264C43.6656 96.5264 28.6732 99.9086 16.7832 105.58V17.5742H16.8076C28.6937 11.2637 43.6767 7.50102 59.959 7.50098Z" fill="#F3F3F3"/>
<path d="M59.959 7.50098V5.50098H59.959L59.959 7.50098ZM103.111 17.5742L102.173 19.3407L102.613 19.5742H103.111V17.5742ZM103.136 17.5742H105.136V15.5742H103.136V17.5742ZM103.136 105.58L102.275 107.385L105.136 108.75V105.58H103.136ZM59.959 96.5264V94.5264H59.959L59.959 96.5264ZM16.7832 105.58H14.7832V108.75L17.6443 107.385L16.7832 105.58ZM16.7832 17.5742V15.5742H14.7832V17.5742H16.7832ZM16.8076 17.5742V19.5742H17.3056L17.7455 19.3407L16.8076 17.5742ZM59.959 7.50098V9.50098C75.9437 9.50098 90.6008 13.1965 102.173 19.3407L103.111 17.5742L104.049 15.8077C91.8494 9.33064 76.5394 5.50098 59.959 5.50098V7.50098ZM103.111 17.5742V19.5742H103.136V17.5742V15.5742H103.111V17.5742ZM103.136 17.5742H101.136V105.58H103.136H105.136V17.5742H103.136ZM103.136 105.58L103.997 103.775C91.8091 97.9614 76.5171 94.5264 59.959 94.5264V96.5264V98.5264C75.9881 98.5264 90.6822 101.856 102.275 107.385L103.136 105.58ZM59.959 96.5264L59.959 94.5264C43.4011 94.5264 28.1097 97.9615 15.9221 103.775L16.7832 105.58L17.6443 107.385C29.2367 101.856 43.9301 98.5264 59.959 98.5264L59.959 96.5264ZM16.7832 105.58H18.7832V17.5742H16.7832H14.7832V105.58H16.7832ZM16.7832 17.5742V19.5742H16.8076V17.5742V15.5742H16.7832V17.5742ZM16.8076 17.5742L17.7455 19.3407C29.3181 13.1966 43.9745 9.50102 59.959 9.50098L59.959 7.50098L59.959 5.50098C43.3788 5.50102 28.0694 9.3308 15.8698 15.8077L16.8076 17.5742Z" fill="black" mask="url(#path-7-inside-4_4020_197)"/>
<mask id="path-9-inside-5_4020_197" fill="white">
<path fill-rule="evenodd" clip-rule="evenodd" d="M63.4785 0C78.4347 3.45835e-05 92.1975 3.45611 103.115 9.25293H103.136V90.0869C92.2147 84.8775 78.4442 81.7705 63.4785 81.7705C48.5131 81.7705 34.7422 84.8767 23.8213 90.0859V9.25293H23.8418C34.7595 3.45619 48.5224 0 63.4785 0Z"/>
</mask>
<path fill-rule="evenodd" clip-rule="evenodd" d="M63.4785 0C78.4347 3.45835e-05 92.1975 3.45611 103.115 9.25293H103.136V90.0869C92.2147 84.8775 78.4442 81.7705 63.4785 81.7705C48.5131 81.7705 34.7422 84.8767 23.8213 90.0859V9.25293H23.8418C34.7595 3.45619 48.5224 0 63.4785 0Z" fill="white"/>
<path d="M63.4785 0L63.4785 -2H63.4785V0ZM103.115 9.25293L102.177 11.0194L102.617 11.2529H103.115V9.25293ZM103.136 9.25293H105.136V7.25293H103.136V9.25293ZM103.136 90.0869L102.275 91.8921L105.136 93.2568V90.0869H103.136ZM63.4785 81.7705L63.4785 79.7705H63.4785V81.7705ZM23.8213 90.0859H21.8213V93.2558L24.6823 91.8911L23.8213 90.0859ZM23.8213 9.25293V7.25293H21.8213V9.25293H23.8213ZM23.8418 9.25293V11.2529H24.3398L24.7797 11.0194L23.8418 9.25293ZM63.4785 0L63.4785 2C78.1369 2.00003 91.5732 5.38904 102.177 11.0194L103.115 9.25293L104.053 7.48648C92.8219 1.52318 78.7325 -1.99996 63.4785 -2L63.4785 0ZM103.115 9.25293V11.2529H103.136V9.25293V7.25293H103.115V9.25293ZM103.136 9.25293H101.136V90.0869H103.136H105.136V9.25293H103.136ZM103.136 90.0869L103.997 88.2818C92.7783 82.9304 78.7088 79.7705 63.4785 79.7705L63.4785 81.7705L63.4785 83.7705C78.1797 83.7705 91.6512 86.8245 102.275 91.8921L103.136 90.0869ZM63.4785 81.7705V79.7705C48.2486 79.7705 34.1788 82.9296 22.9602 88.2808L23.8213 90.0859L24.6823 91.8911C35.3057 86.8238 48.7775 83.7705 63.4785 83.7705V81.7705ZM23.8213 90.0859H25.8213V9.25293H23.8213H21.8213V90.0859H23.8213ZM23.8213 9.25293V11.2529H23.8418V9.25293V7.25293H23.8213V9.25293ZM23.8418 9.25293L24.7797 11.0194C35.3838 5.38912 48.8203 2 63.4785 2V0V-2C48.2245 -2 34.1351 1.52326 22.9039 7.48648L23.8418 9.25293Z" fill="black" mask="url(#path-9-inside-5_4020_197)"/>
<mask id="path-11-inside-6_4020_197" fill="white">
<path fill-rule="evenodd" clip-rule="evenodd" d="M149.153 15.3018C166.609 15.3018 182.673 19.3353 195.416 26.1006H195.442V120.452C182.695 114.372 166.621 110.746 149.153 110.746C131.685 110.746 115.612 114.372 102.864 120.452V26.1006H102.891C115.634 19.3351 131.697 15.3018 149.153 15.3018Z"/>
</mask>
<path fill-rule="evenodd" clip-rule="evenodd" d="M149.153 15.3018C166.609 15.3018 182.673 19.3353 195.416 26.1006H195.442V120.452C182.695 114.372 166.621 110.746 149.153 110.746C131.685 110.746 115.612 114.372 102.864 120.452V26.1006H102.891C115.634 19.3351 131.697 15.3018 149.153 15.3018Z" fill="#D9D9D9"/>
<path d="M149.153 15.3018V13.3018H149.153L149.153 15.3018ZM195.416 26.1006L194.478 27.8671L194.918 28.1006H195.416V26.1006ZM195.442 26.1006H197.442V24.1006H195.442V26.1006ZM195.442 120.452L194.581 122.257L197.442 123.622V120.452H195.442ZM149.153 110.746V108.746H149.153L149.153 110.746ZM102.864 120.452H100.864V123.622L103.725 122.257L102.864 120.452ZM102.864 26.1006V24.1006H100.864V26.1006H102.864ZM102.891 26.1006V28.1006H103.389L103.828 27.8671L102.891 26.1006ZM149.153 15.3018V17.3018C166.312 17.3018 182.049 21.2682 194.478 27.8671L195.416 26.1006L196.354 24.3341C183.297 17.4023 166.907 13.3018 149.153 13.3018V15.3018ZM195.416 26.1006V28.1006H195.442V26.1006V24.1006H195.416V26.1006ZM195.442 26.1006H193.442V120.452H195.442H197.442V26.1006H195.442ZM195.442 120.452L196.303 118.647C183.259 112.425 166.886 108.746 149.153 108.746V110.746V112.746C166.357 112.746 182.132 116.319 194.581 122.257L195.442 120.452ZM149.153 110.746L149.153 108.746C131.421 108.746 115.048 112.425 102.003 118.647L102.864 120.452L103.725 122.257C116.175 116.319 131.95 112.746 149.153 112.746L149.153 110.746ZM102.864 120.452H104.864V26.1006H102.864H100.864V120.452H102.864ZM102.864 26.1006V28.1006H102.891V26.1006V24.1006H102.864V26.1006ZM102.891 26.1006L103.828 27.8671C116.258 21.2681 131.995 17.3018 149.153 17.3018L149.153 15.3018L149.153 13.3018C131.399 13.3018 115.009 17.4022 101.953 24.3341L102.891 26.1006Z" fill="black" mask="url(#path-11-inside-6_4020_197)"/>
<mask id="path-13-inside-7_4020_197" fill="white">
<path fill-rule="evenodd" clip-rule="evenodd" d="M146.312 7.78125C162.593 7.78131 177.576 11.5434 189.462 17.8535H189.488V105.859C177.598 100.188 162.605 96.8067 146.312 96.8066C130.018 96.8067 115.026 100.188 103.136 105.859V17.8535H103.162C115.048 11.5437 130.03 7.78129 146.312 7.78125Z"/>
</mask>
<path fill-rule="evenodd" clip-rule="evenodd" d="M146.312 7.78125C162.593 7.78131 177.576 11.5434 189.462 17.8535H189.488V105.859C177.598 100.188 162.605 96.8067 146.312 96.8066C130.018 96.8067 115.026 100.188 103.136 105.859V17.8535H103.162C115.048 11.5437 130.03 7.78129 146.312 7.78125Z" fill="#F3F3F3"/>
<path d="M146.312 7.78125L146.312 5.78125H146.312L146.312 7.78125ZM189.462 17.8535L188.524 19.62L188.964 19.8535H189.462V17.8535ZM189.488 17.8535H191.488V15.8535H189.488V17.8535ZM189.488 105.859L188.627 107.665L191.488 109.029V105.859H189.488ZM146.312 96.8066L146.312 94.8066H146.312L146.312 96.8066ZM103.136 105.859H101.136V109.029L103.997 107.665L103.136 105.859ZM103.136 17.8535V15.8535H101.136V17.8535H103.136ZM103.162 17.8535V19.8535H103.66L104.1 19.62L103.162 17.8535ZM146.312 7.78125L146.312 9.78125C162.295 9.78131 176.952 13.4764 188.524 19.62L189.462 17.8535L190.4 16.087C178.2 9.61048 162.891 5.78131 146.312 5.78125L146.312 7.78125ZM189.462 17.8535V19.8535H189.488V17.8535V15.8535H189.462V17.8535ZM189.488 17.8535H187.488V105.859H189.488H191.488V17.8535H189.488ZM189.488 105.859L190.349 104.054C178.162 98.2407 162.869 94.8067 146.312 94.8066L146.312 96.8066L146.312 98.8066C162.341 98.8067 177.035 102.135 188.627 107.665L189.488 105.859ZM146.312 96.8066L146.312 94.8066C129.754 94.8067 114.462 98.2409 102.275 104.054L103.136 105.859L103.997 107.665C115.589 102.135 130.283 98.8067 146.312 98.8066L146.312 96.8066ZM103.136 105.859H105.136V17.8535H103.136H101.136V105.859H103.136ZM103.136 17.8535V19.8535H103.162V17.8535V15.8535H103.136V17.8535ZM103.162 17.8535L104.1 19.62C115.672 13.4766 130.328 9.78129 146.312 9.78125L146.312 7.78125L146.312 5.78125C129.732 5.78129 114.424 9.61079 102.224 16.087L103.162 17.8535Z" fill="black" mask="url(#path-13-inside-7_4020_197)"/>
<mask id="path-15-inside-8_4020_197" fill="white">
<path fill-rule="evenodd" clip-rule="evenodd" d="M142.793 0.256836C157.749 0.256935 171.512 3.71293 182.43 9.50977H182.45V90.3438C171.529 85.1344 157.759 82.0274 142.793 82.0273C127.828 82.0273 114.057 85.1336 103.136 90.3428V9.50977H103.156C114.074 3.71317 127.837 0.256836 142.793 0.256836Z"/>
</mask>
<path fill-rule="evenodd" clip-rule="evenodd" d="M142.793 0.256836C157.749 0.256935 171.512 3.71293 182.43 9.50977H182.45V90.3438C171.529 85.1344 157.759 82.0274 142.793 82.0273C127.828 82.0273 114.057 85.1336 103.136 90.3428V9.50977H103.156C114.074 3.71317 127.837 0.256836 142.793 0.256836Z" fill="white"/>
<path d="M142.793 0.256836L142.793 -1.74316H142.793V0.256836ZM182.43 9.50977L181.492 11.2762L181.932 11.5098H182.43V9.50977ZM182.45 9.50977H184.45V7.50977H182.45V9.50977ZM182.45 90.3438L181.589 92.1489L184.45 93.5137V90.3438H182.45ZM142.793 82.0273L142.793 80.0273H142.793V82.0273ZM103.136 90.3428H101.136V93.5126L103.997 92.1479L103.136 90.3428ZM103.136 9.50977V7.50977H101.136V9.50977H103.136ZM103.156 9.50977V11.5098H103.654L104.094 11.2762L103.156 9.50977ZM142.793 0.256836L142.793 2.25684C157.451 2.25693 170.888 5.64587 181.492 11.2762L182.43 9.50977L183.368 7.74332C172.136 1.78 158.047 -1.74306 142.793 -1.74316L142.793 0.256836ZM182.43 9.50977V11.5098H182.45V9.50977V7.50977H182.43V9.50977ZM182.45 9.50977H180.45V90.3438H182.45H184.45V9.50977H182.45ZM182.45 90.3438L183.311 88.5386C172.093 83.1873 158.023 80.0274 142.793 80.0273L142.793 82.0273L142.793 84.0273C157.494 84.0274 170.966 87.0814 181.589 92.1489L182.45 90.3438ZM142.793 82.0273V80.0273C127.563 80.0273 113.493 83.1865 102.275 88.5376L103.136 90.3428L103.997 92.1479C114.62 87.0807 128.092 84.0273 142.793 84.0273V82.0273ZM103.136 90.3428H105.136V9.50977H103.136H101.136V90.3428H103.136ZM103.136 9.50977V11.5098H103.156V9.50977V7.50977H103.136V9.50977ZM103.156 9.50977L104.094 11.2762C114.698 5.6461 128.135 2.25684 142.793 2.25684V0.256836V-1.74316C127.539 -1.74316 113.45 1.78025 102.218 7.74331L103.156 9.50977Z" fill="black" mask="url(#path-15-inside-8_4020_197)"/>
</svg>
