<?xml version="1.0" encoding="UTF-8" standalone="no"?>
<!-- Created with Inkscape (http://www.inkscape.org/) -->

<svg
   width="24.864634mm"
   height="14.976346mm"
   viewBox="0 0 24.864634 14.976346"
   version="1.1"
   id="svg1"
   xml:space="preserve"
   xmlns:inkscape="http://www.inkscape.org/namespaces/inkscape"
   xmlns:sodipodi="http://sodipodi.sourceforge.net/DTD/sodipodi-0.dtd"
   xmlns="http://www.w3.org/2000/svg"
   xmlns:svg="http://www.w3.org/2000/svg"><sodipodi:namedview
     id="namedview1"
     pagecolor="#a9a9a9"
     bordercolor="#000000"
     borderopacity="0.25"
     inkscape:showpageshadow="2"
     inkscape:pageopacity="0.0"
     inkscape:pagecheckerboard="true"
     inkscape:deskcolor="#d1d1d1"
     inkscape:document-units="mm"><inkscape:page
       x="0"
       y="0"
       width="24.864634"
       height="14.976346"
       id="page2"
       margin="0"
       bleed="0" /></sodipodi:namedview><defs
     id="defs1" /><g
     inkscape:label="Warstwa 1"
     inkscape:groupmode="layer"
     id="layer1"
     transform="translate(-74.109178,-12.022522)"><g
       id="g98"><g
         id="g9"
         transform="matrix(0.487258,0,0,0.49920362,104.641,12.022591)"><path
           d="m -61.631021,0 v 30 h 50 V 0 Z"
           fill="#012169"
           id="path2" /><path
           d="M -61.630697,-1.3827493e-4 -62.660497,1.7151507 h 0.0011 z"
           style="baseline-shift:baseline;display:inline;overflow:visible;vector-effect:none;fill:#ffffff;enable-background:accumulate;stop-color:#000000;stop-opacity:1"
           id="path46" /><path
           d="M -61.630697,-1.3827493e-4 V 0.40979199 0.5837018 1.7503468 2.9169917 3.4977263 L -42.46115,14.999583 -61.630697,26.502474 v 3.497865 l 25.000483,-14.999721 z"
           style="baseline-shift:baseline;display:inline;overflow:visible;vector-effect:none;fill:#ffffff;enable-background:accumulate;stop-color:#000000;stop-opacity:1"
           id="path48" /><path
           d="m -36.630214,15.000618 -25.000483,14.999721 h 0.621486 0.768903 0.620425 0.316046 0.304379 0.117722 1.743554 0.616183 0.0042 0.716935 l 19.16955,-11.501857 19.169547,11.501857 h 0.615122 0.317106 0.303319 0.117722 0.752995 0.990559 0.617243 0.0032 0.717996 1.395692 z"
           style="baseline-shift:baseline;display:inline;overflow:visible;vector-effect:none;fill:#ffffff;enable-background:accumulate;stop-color:#000000;stop-opacity:1"
           id="path91" /><path
           d="M -11.630791,-1.3827493e-4 -36.630214,15.000618 -11.631852,29.999304 v -1.164575 -2.330184 -0.0021 -0.001 L -30.801399,14.999583 -11.630791,3.4977263 Z"
           style="baseline-shift:baseline;display:inline;overflow:visible;vector-effect:none;fill:#ffffff;enable-background:accumulate;stop-color:#000000;stop-opacity:1"
           id="path57" /><path
           d="m -11.630791,-1.3827493e-4 h -1.039345 -0.0032 -1.671436 -0.2662 -0.169689 -0.185597 -1.240851 -0.618304 -0.621485 -0.01485 L -36.631274,11.501718 -55.800821,-1.3827493e-4 h -0.0032 -1.671436 -0.435889 -0.185597 -1.24085 -0.618304 -0.621486 -1.053132 L -36.630214,15.000618 Z"
           style="baseline-shift:baseline;display:inline;overflow:visible;vector-effect:none;fill:#ffffff;enable-background:accumulate;stop-color:#000000;stop-opacity:1"
           id="path76" /><path
           d="M -61.630697,-1.3827493e-4 V 1.1665067 2.1571715 2.3331517 l 21.112486,12.6664313 -21.112486,12.667466 v 2.33329 l 25.000483,-14.999721 z"
           style="baseline-shift:baseline;display:inline;overflow:visible;vector-effect:none;fill:#c8102e;enable-background:accumulate;stop-color:#000000;stop-opacity:1"
           id="path42" /><path
           d="m -36.630214,15.000618 -25.000483,14.999721 h 0.384982 0.621485 0.768903 0.619365 0.317106 0.303319 0.117722 0.752995 l 21.113546,-12.668501 21.113546,12.668501 h 0.162265 0.990559 0.617243 0.0032 0.717996 1.394631 z"
           style="baseline-shift:baseline;display:inline;overflow:visible;vector-effect:none;fill:#c8102e;enable-background:accumulate;stop-color:#000000;stop-opacity:1"
           id="path94" /><path
           d="M -11.631852,-1.3827493e-4 -36.630214,15.000618 -11.631852,30.000339 V 29.417534 27.667049 L -32.744337,14.999583 -11.630791,2.3321165 V 0.00193208 Z"
           style="baseline-shift:baseline;display:inline;overflow:visible;vector-effect:none;fill:#c8102e;enable-background:accumulate;stop-color:#000000;stop-opacity:1"
           id="path60" /><path
           d="m -11.631852,-1.3827493e-4 h -0.109237 -0.0032 -1.671436 -0.266199 -0.169689 -0.185597 -1.240851 -0.239685 L -36.631274,12.668363 -57.74482,-1.3827493e-4 h -0.169689 -0.185598 -1.24085 -0.618304 -0.621486 -1.04995 L -36.630214,15.000618 Z"
           style="baseline-shift:baseline;display:inline;overflow:visible;vector-effect:none;fill:#c8102e;enable-background:accumulate;stop-color:#000000;stop-opacity:1"
           id="path79" /><path
           d="m -61.630697,17.999527 h 22.000171 v 12.000812 h 5.999564 V 17.999527 h 22.000171 V 11.999639 H -33.630962 V -1.3827493e-4 h -5.999564 V 11.999639 h -22.000171 z"
           style="baseline-shift:baseline;display:inline;overflow:visible;vector-effect:none;fill:#c8102e;enable-background:accumulate;stop-color:#000000;stop-opacity:1"
           id="path23" /><path
           d="m -33.630962,30.000339 h 2.000209 V 19.99949 h 19.999962 v -1.999963 h -22.000171 z"
           style="baseline-shift:baseline;display:inline;overflow:visible;vector-effect:none;fill:#ffffff;enable-background:accumulate;stop-color:#000000;stop-opacity:1"
           id="path83" /><path
           d="m -61.630697,17.999527 v 1.999963 h 19.999963 v 10.000849 h 2.000208 V 17.999527 h -2.000208 z"
           style="baseline-shift:baseline;display:inline;overflow:visible;vector-effect:none;fill:#ffffff;enable-background:accumulate;stop-color:#000000;stop-opacity:1"
           id="path81" /><path
           d="m -39.630526,-1.3827493e-4 h -0.09439 -1.238729 -0.667089 V 9.9996757 h -19.999963 v 1.9999633 h 22.000171 z"
           style="baseline-shift:baseline;display:inline;overflow:visible;vector-effect:none;fill:#ffffff;enable-background:accumulate;stop-color:#000000;stop-opacity:1"
           id="path66" /><path
           d="m -31.630753,-1.3827493e-4 h -2.000209 V 9.9996757 h 2.000209 z"
           style="baseline-shift:baseline;display:inline;overflow:visible;vector-effect:none;fill:#ffffff;enable-background:accumulate;stop-color:#000000;stop-opacity:1"
           id="path64" /><path
           d="m -31.630753,9.9996757 h -2.000209 v 1.9999633 h 22.000171 V 9.9996757 Z"
           style="baseline-shift:baseline;display:inline;overflow:visible;vector-effect:none;fill:#ffffff;enable-background:accumulate;stop-color:#000000;stop-opacity:1"
           id="path18" /></g></g></g></svg>
