<svg width="215" height="200" viewBox="0 0 215 200" fill="none" xmlns="http://www.w3.org/2000/svg">
<path fill-rule="evenodd" clip-rule="evenodd" d="M210.744 97.3135C218.099 104.668 212.898 117.244 202.497 117.256C199.394 117.26 196.417 116.029 194.223 113.835L117.795 37.4069C111.937 31.5492 102.439 31.5491 96.5816 37.4069L19.9312 114.056C17.7475 116.239 14.7868 117.468 11.6986 117.471C1.30267 117.483 -3.91195 104.914 3.43915 97.5634L96.6099 4.39335C102.468 -1.46446 111.965 -1.46444 117.823 4.39337L210.744 97.3135Z" fill="black"/>
<path fill-rule="evenodd" clip-rule="evenodd" d="M99.8766 48.1082C103.774 44.1959 110.106 44.1842 114.018 48.0818L183.695 117.504V189.231C183.695 194.754 179.218 199.232 173.695 199.232H132.71V129.004C132.71 123.481 128.232 119.004 122.71 119.004H92.4723C86.9496 119.004 82.4723 123.481 82.4723 129.004V199.232H40.736C35.2133 199.232 30.736 194.754 30.736 189.231V117.504L99.8766 48.1082Z" fill="black"/>
</svg>
