<?xml version="1.0" encoding="UTF-8" standalone="no"?>
<!-- Created with Inkscape (http://www.inkscape.org/) -->

<svg
   width="47.747288mm"
   height="47.747604mm"
   viewBox="0 0 47.747288 47.747604"
   version="1.1"
   id="svg1"
   inkscape:version="1.3 (0e150ed6c4, 2023-07-21)"
   sodipodi:docname="language.svg"
   xmlns:inkscape="http://www.inkscape.org/namespaces/inkscape"
   xmlns:sodipodi="http://sodipodi.sourceforge.net/DTD/sodipodi-0.dtd"
   xmlns="http://www.w3.org/2000/svg"
   xmlns:svg="http://www.w3.org/2000/svg">
  <sodipodi:namedview
     id="namedview1"
     pagecolor="#ffffff"
     bordercolor="#000000"
     borderopacity="0.25"
     inkscape:showpageshadow="2"
     inkscape:pageopacity="0.0"
     inkscape:pagecheckerboard="0"
     inkscape:deskcolor="#d1d1d1"
     inkscape:document-units="mm"
     inkscape:zoom="2.0938813"
     inkscape:cx="351.73914"
     inkscape:cy="475.91046"
     inkscape:window-width="1920"
     inkscape:window-height="1027"
     inkscape:window-x="-8"
     inkscape:window-y="-8"
     inkscape:window-maximized="1"
     inkscape:current-layer="layer1" />
  <defs
     id="defs1" />
  <g
     inkscape:label="Warstwa 1"
     inkscape:groupmode="layer"
     id="layer1"
     transform="translate(-74.411554,-104.79044)">
    <circle
       style="fill:none;fill-opacity:1;stroke:#000000;stroke-width:2;stroke-dasharray:none;stroke-opacity:1"
       id="path1"
       cx="98.285194"
       cy="128.66426"
       r="22.873646"
       inkscape:export-filename="language.svg"
       inkscape:export-xdpi="96"
       inkscape:export-ydpi="96" />
    <ellipse
       style="fill:none;fill-opacity:1;stroke:#000000;stroke-width:2;stroke-dasharray:none;stroke-opacity:1"
       id="circle1"
       cx="98.285194"
       cy="128.66426"
       rx="12.401121"
       ry="22.873646" />
    <path
       id="path2"
       style="fill:none;fill-opacity:1;stroke:#000000;stroke-width:2;stroke-dasharray:none;stroke-opacity:1"
       d="m 98.284957,143.34371 a 22.721428,8.1939449 0 0 0 -15.403711,2.18229 22.873646,22.873646 0 0 0 15.403711,6.01204 22.873646,22.873646 0 0 0 15.410943,-6.01876 22.721428,8.1939449 0 0 0 -15.410943,-2.17557 z" />
    <path
       style="fill:none;fill-opacity:1;stroke:#000000;stroke-width:2;stroke-dasharray:none;stroke-opacity:1"
       d="M 75.563766,128.66426 H 121.00662"
       id="path3" />
    <path
       style="fill:none;fill-opacity:1;stroke:#000000;stroke-width:2;stroke-dasharray:none;stroke-opacity:1"
       d="M 98.285193,151.5379 V 105.65363"
       id="path4" />
    <path
       id="ellipse4"
       style="fill:none;fill-opacity:1;stroke:#000000;stroke-width:2;stroke-dasharray:none;stroke-opacity:1"
       d="m 98.284957,105.79044 a 22.873646,22.873646 0 0 0 -15.302942,5.91127 22.721428,8.1939449 0 0 0 15.302942,2.14612 22.721428,8.1939449 0 0 0 15.332393,-2.15646 22.873646,22.873646 0 0 0 -15.332393,-5.90093 z" />
  </g>
</svg>
