<svg width="250" height="262" viewBox="0 0 250 262" fill="none" xmlns="http://www.w3.org/2000/svg">
<path d="M183.436 29.5725C190.822 31.229 197.724 34.1659 203.896 38.1399L216.813 25.2239L236.631 45.0422L223.57 58.1028C227.291 64.0719 230.052 70.7012 231.638 77.7747H250V105.801H231.638C230.017 113.031 227.167 119.796 223.32 125.867L236.63 139.178L216.813 158.996L203.502 145.686C197.431 149.533 190.666 152.382 183.436 154.003V172.365H155.41V154.003C148.336 152.417 141.706 149.656 135.737 145.935L122.677 158.995L102.859 139.178L115.775 126.261C111.801 120.089 108.864 113.187 107.208 105.801H88.8452V77.7747H107.208C108.829 70.5447 111.677 63.7785 115.524 57.7073L102.859 45.0422L122.677 25.2239L135.342 37.8889C141.414 34.042 148.18 31.1939 155.41 29.5725V11.2102H183.436V29.5725ZM169.773 51.1487C147.522 51.1488 129.485 69.1869 129.485 91.4377C129.485 113.688 147.522 131.727 169.773 131.727C192.024 131.727 210.062 113.689 210.062 91.4377C210.062 69.1868 192.024 51.1487 169.773 51.1487Z" fill="black"/>
<path d="M176.429 36.5793C183.816 38.2358 190.718 41.1727 196.889 45.1467L209.806 32.2307L229.624 52.0491L216.563 65.1086C220.285 71.078 223.045 77.7078 224.631 84.7815H242.994V112.808H224.631C223.01 120.038 220.16 126.803 216.313 132.874L229.624 146.185L209.806 166.002L196.496 152.692C190.424 156.539 183.659 159.389 176.429 161.01V179.372H148.403V161.01C141.329 159.424 134.699 156.663 128.73 152.942L115.671 166.002L95.8522 146.185L108.768 133.268C104.794 127.096 101.857 120.194 100.201 112.808H81.8385V84.7815H100.201C101.822 77.5515 104.67 70.7854 108.517 64.7141L95.8522 52.0491L115.671 32.2307L128.336 44.8958C134.407 41.0488 141.173 38.2008 148.403 36.5793V18.217H176.429V36.5793ZM162.766 58.1555C140.515 58.1557 122.477 76.1938 122.477 98.4446C122.477 120.695 140.516 138.733 162.766 138.733C185.017 138.733 203.055 120.695 203.055 98.4446C203.055 76.1937 185.017 58.1555 162.766 58.1555Z" fill="#D9D9D9"/>
<path d="M250.001 105.801H242.994V112.808L250.001 105.801Z" fill="black"/>
<path d="M183.436 172.366H176.43V179.372L183.436 172.366Z" fill="black"/>
<path d="M81.8385 84.7811H88.8453V77.7744L81.8385 84.7811Z" fill="black"/>
<path d="M148.403 18.217H155.409V11.2103L148.403 18.217Z" fill="black"/>
<rect x="44.7054" y="68.3119" width="22.4216" height="146.966" transform="rotate(-30 44.7054 68.3119)" fill="black"/>
<path d="M171.663 229.169C176.212 219.924 176.215 208.653 170.676 199.06C161.854 183.779 142.314 178.543 127.033 187.365C111.752 196.188 106.516 215.728 115.339 231.009C120.877 240.602 130.639 246.236 140.92 246.918L119.471 209.768L150.214 192.018L171.663 229.169ZM145.386 254.652L140.921 246.918L140.92 246.918L145.385 254.652L145.386 254.652Z" fill="black"/>
<path d="M129.699 227.858L138.506 207.238L122.972 216.207L129.699 227.858Z" fill="black"/>
<path d="M160.767 209.92L138.506 207.238L154.04 198.27L160.767 209.92Z" fill="black"/>
<rect x="119.124" y="209.367" width="35.8746" height="7.84756" transform="rotate(-30 119.124 209.367)" fill="black"/>
<path d="M43.0401 7.33801C53.3208 8.02046 63.0834 13.6537 68.622 23.2468C77.4444 38.5278 72.2086 58.0677 56.9277 66.8902C41.6468 75.7127 22.1068 70.4769 13.2843 55.196C7.74587 45.6032 7.74793 34.332 12.297 25.0875L33.7457 62.2378L64.4888 44.4883L43.0401 7.33801Z" fill="black"/>
<path d="M23.1935 44.3356L45.4541 47.0175L29.92 55.9862L23.1935 44.3356Z" fill="black"/>
<path d="M54.2617 26.3983L45.4541 47.0176L60.9882 38.0489L54.2617 26.3983Z" fill="black"/>
<rect width="35.8746" height="7.84756" transform="matrix(0.866025 -0.5 -0.5 -0.866025 33.9192 62.7388)" fill="black"/>
</svg>
